<svg height="2622" width="720" xmlns="http://www.w3.org/2000/svg">
<rect height="2622" fill="#555" width="720"></rect>
<text fill="#7f7" font-family="Courier New" font-size="12" xml:space="preserve">
<tspan x="10" y="26">30 megabytes installed</tspan>
<tspan x="10" y="42"></tspan>
<tspan x="10" y="58">node_modules</tspan>
<tspan x="10" y="74">└─┬ redbird@0.6.15 </tspan>
<tspan x="10" y="90">  ├── bluebird@3.5.0 </tspan>
<tspan x="10" y="106">  ├─┬ bunyan@1.8.10 </tspan>
<tspan x="10" y="122">  │ ├─┬ dtrace-provider@0.8.1 </tspan>
<tspan x="10" y="138">  │ │ └── nan@2.6.2 </tspan>
<tspan x="10" y="154">  │ ├── moment@2.18.1 </tspan>
<tspan x="10" y="170">  │ ├─┬ mv@2.1.1 </tspan>
<tspan x="10" y="186">  │ │ ├── ncp@2.0.0 </tspan>
<tspan x="10" y="202">  │ │ └─┬ rimraf@2.4.5 </tspan>
<tspan x="10" y="218">  │ │   └─┬ glob@6.0.4 </tspan>
<tspan x="10" y="234">  │ │     ├─┬ inflight@1.0.6 </tspan>
<tspan x="10" y="250">  │ │     │ └── wrappy@1.0.2 </tspan>
<tspan x="10" y="266">  │ │     ├─┬ minimatch@3.0.3 </tspan>
<tspan x="10" y="282">  │ │     │ └─┬ brace-expansion@1.1.7 </tspan>
<tspan x="10" y="298">  │ │     │   ├── balanced-match@0.4.2 </tspan>
<tspan x="10" y="314">  │ │     │   └── concat-map@0.0.1 </tspan>
<tspan x="10" y="330">  │ │     ├── once@1.4.0 </tspan>
<tspan x="10" y="346">  │ │     └── path-is-absolute@1.0.1 </tspan>
<tspan x="10" y="362">  │ └── safe-json-stringify@1.0.4 </tspan>
<tspan x="10" y="378">  ├─┬ dolphin@0.1.14 </tspan>
<tspan x="10" y="394">  │ ├── bluebird@2.11.0 </tspan>
<tspan x="10" y="410">  │ └─┬ request@2.81.0 </tspan>
<tspan x="10" y="426">  │   ├── aws-sign2@0.6.0 </tspan>
<tspan x="10" y="442">  │   ├── aws4@1.6.0 </tspan>
<tspan x="10" y="458">  │   ├── caseless@0.12.0 </tspan>
<tspan x="10" y="474">  │   ├─┬ combined-stream@1.0.5 </tspan>
<tspan x="10" y="490">  │   │ └── delayed-stream@1.0.0 </tspan>
<tspan x="10" y="506">  │   ├── extend@3.0.0 </tspan>
<tspan x="10" y="522">  │   ├── forever-agent@0.6.1 </tspan>
<tspan x="10" y="538">  │   ├─┬ form-data@2.1.4 </tspan>
<tspan x="10" y="554">  │   │ └── asynckit@0.4.0 </tspan>
<tspan x="10" y="570">  │   ├─┬ har-validator@4.2.1 </tspan>
<tspan x="10" y="586">  │   │ ├─┬ ajv@4.11.7 </tspan>
<tspan x="10" y="602">  │   │ │ ├── co@4.6.0 </tspan>
<tspan x="10" y="618">  │   │ │ └─┬ json-stable-stringify@1.0.1 </tspan>
<tspan x="10" y="634">  │   │ │   └── jsonify@0.0.0 </tspan>
<tspan x="10" y="650">  │   │ └── har-schema@1.0.5 </tspan>
<tspan x="10" y="666">  │   ├─┬ hawk@3.1.3 </tspan>
<tspan x="10" y="682">  │   │ ├── boom@2.10.1 </tspan>
<tspan x="10" y="698">  │   │ ├── cryptiles@2.0.5 </tspan>
<tspan x="10" y="714">  │   │ ├── hoek@2.16.3 </tspan>
<tspan x="10" y="730">  │   │ └── sntp@1.0.9 </tspan>
<tspan x="10" y="746">  │   ├─┬ http-signature@1.1.1 </tspan>
<tspan x="10" y="762">  │   │ ├── assert-plus@0.2.0 </tspan>
<tspan x="10" y="778">  │   │ ├─┬ jsprim@1.4.0 </tspan>
<tspan x="10" y="794">  │   │ │ ├── assert-plus@1.0.0 </tspan>
<tspan x="10" y="810">  │   │ │ ├── extsprintf@1.0.2 </tspan>
<tspan x="10" y="826">  │   │ │ ├── json-schema@0.2.3 </tspan>
<tspan x="10" y="842">  │   │ │ └── verror@1.3.6 </tspan>
<tspan x="10" y="858">  │   │ └─┬ sshpk@1.13.0 </tspan>
<tspan x="10" y="874">  │   │   ├── asn1@0.2.3 </tspan>
<tspan x="10" y="890">  │   │   ├── assert-plus@1.0.0 </tspan>
<tspan x="10" y="906">  │   │   ├── bcrypt-pbkdf@1.0.1 </tspan>
<tspan x="10" y="922">  │   │   ├─┬ dashdash@1.14.1 </tspan>
<tspan x="10" y="938">  │   │   │ └── assert-plus@1.0.0 </tspan>
<tspan x="10" y="954">  │   │   ├── ecc-jsbn@0.1.1 </tspan>
<tspan x="10" y="970">  │   │   ├─┬ getpass@0.1.6 </tspan>
<tspan x="10" y="986">  │   │   │ └── assert-plus@1.0.0 </tspan>
<tspan x="10" y="1002">  │   │   ├── jodid25519@1.0.2 </tspan>
<tspan x="10" y="1018">  │   │   ├── jsbn@0.1.1 </tspan>
<tspan x="10" y="1034">  │   │   └── tweetnacl@0.14.5 </tspan>
<tspan x="10" y="1050">  │   ├── is-typedarray@1.0.0 </tspan>
<tspan x="10" y="1066">  │   ├── isstream@0.1.2 </tspan>
<tspan x="10" y="1082">  │   ├── json-stringify-safe@5.0.1 </tspan>
<tspan x="10" y="1098">  │   ├─┬ mime-types@2.1.15 </tspan>
<tspan x="10" y="1114">  │   │ └── mime-db@1.27.0 </tspan>
<tspan x="10" y="1130">  │   ├── oauth-sign@0.8.2 </tspan>
<tspan x="10" y="1146">  │   ├── performance-now@0.2.0 </tspan>
<tspan x="10" y="1162">  │   ├── qs@6.4.0 </tspan>
<tspan x="10" y="1178">  │   ├── safe-buffer@5.0.1 </tspan>
<tspan x="10" y="1194">  │   ├── stringstream@0.0.5 </tspan>
<tspan x="10" y="1210">  │   ├─┬ tough-cookie@2.3.2 </tspan>
<tspan x="10" y="1226">  │   │ └── punycode@1.4.1 </tspan>
<tspan x="10" y="1242">  │   ├── tunnel-agent@0.6.0 </tspan>
<tspan x="10" y="1258">  │   └── uuid@3.0.1 </tspan>
<tspan x="10" y="1274">  ├─┬ http-proxy@1.16.2 </tspan>
<tspan x="10" y="1290">  │ ├── eventemitter3@1.2.0 </tspan>
<tspan x="10" y="1306">  │ └── requires-port@1.0.0 </tspan>
<tspan x="10" y="1322">  ├─┬ le-challenge-fs@2.0.8 </tspan>
<tspan x="10" y="1338">  │ └─┬ mkdirp@0.5.1 </tspan>
<tspan x="10" y="1354">  │   └── minimist@0.0.8 </tspan>
<tspan x="10" y="1370">  ├─┬ le-store-certbot@2.0.5 </tspan>
<tspan x="10" y="1386">  │ ├── pyconf@1.1.2 </tspan>
<tspan x="10" y="1402">  │ └── safe-replace@1.0.2 </tspan>
<tspan x="10" y="1418">  ├─┬ letsencrypt@2.1.8 </tspan>
<tspan x="10" y="1434">  │ ├── asn1js@1.2.12 </tspan>
<tspan x="10" y="1450">  │ ├─┬ certpem@1.0.1 </tspan>
<tspan x="10" y="1466">  │ │ └── buffer-v6-polyfill@1.0.3 </tspan>
<tspan x="10" y="1482">  │ ├── homedir@0.6.0 </tspan>
<tspan x="10" y="1498">  │ ├── le-acme-core@2.0.9 </tspan>
<tspan x="10" y="1514">  │ ├─┬ le-challenge-sni@2.0.1 </tspan>
<tspan x="10" y="1530">  │ │ └── le-tls-sni@0.1.4 </tspan>
<tspan x="10" y="1546">  │ ├── le-sni-auto@2.1.0 </tspan>
<tspan x="10" y="1562">  │ ├── localhost.daplie.com-certificates@1.2.5 </tspan>
<tspan x="10" y="1578">  │ ├─┬ node.extend@1.1.6 </tspan>
<tspan x="10" y="1594">  │ │ └── is@3.2.1 </tspan>
<tspan x="10" y="1610">  │ ├── pkijs@1.3.33 </tspan>
<tspan x="10" y="1626">  │ └─┬ rsa-compat@1.2.7 </tspan>
<tspan x="10" y="1642">  │   ├── node-forge@0.6.49 </tspan>
<tspan x="10" y="1658">  │   └── ursa@0.9.4 </tspan>
<tspan x="10" y="1674">  ├── lodash@4.17.4 </tspan>
<tspan x="10" y="1690">  ├─┬ lru-cache@4.0.2 </tspan>
<tspan x="10" y="1706">  │ ├── pseudomap@1.0.2 </tspan>
<tspan x="10" y="1722">  │ └── yallist@2.1.2 </tspan>
<tspan x="10" y="1738">  ├─┬ node-etcd@4.2.1 </tspan>
<tspan x="10" y="1754">  │ ├─┬ deasync@0.1.9 </tspan>
<tspan x="10" y="1770">  │ │ └── bindings@1.2.1 </tspan>
<tspan x="10" y="1786">  │ ├─┬ request@2.60.0 </tspan>
<tspan x="10" y="1802">  │ │ ├── aws-sign2@0.5.0 </tspan>
<tspan x="10" y="1818">  │ │ ├── bl@1.0.3 </tspan>
<tspan x="10" y="1834">  │ │ ├── caseless@0.11.0 </tspan>
<tspan x="10" y="1850">  │ │ ├─┬ form-data@1.0.1 </tspan>
<tspan x="10" y="1866">  │ │ │ └── async@2.3.0 </tspan>
<tspan x="10" y="1882">  │ │ ├─┬ har-validator@1.8.0 </tspan>
<tspan x="10" y="1898">  │ │ │ ├── bluebird@2.11.0 </tspan>
<tspan x="10" y="1914">  │ │ │ ├─┬ chalk@1.1.3 </tspan>
<tspan x="10" y="1930">  │ │ │ │ ├── ansi-styles@2.2.1 </tspan>
<tspan x="10" y="1946">  │ │ │ │ ├── escape-string-regexp@1.0.5 </tspan>
<tspan x="10" y="1962">  │ │ │ │ ├─┬ has-ansi@2.0.0 </tspan>
<tspan x="10" y="1978">  │ │ │ │ │ └── ansi-regex@2.1.1 </tspan>
<tspan x="10" y="1994">  │ │ │ │ ├── strip-ansi@3.0.1 </tspan>
<tspan x="10" y="2010">  │ │ │ │ └── supports-color@2.0.0 </tspan>
<tspan x="10" y="2026">  │ │ │ ├─┬ commander@2.9.0 </tspan>
<tspan x="10" y="2042">  │ │ │ │ └── graceful-readlink@1.0.1 </tspan>
<tspan x="10" y="2058">  │ │ │ └─┬ is-my-json-valid@2.16.0 </tspan>
<tspan x="10" y="2074">  │ │ │   ├── generate-function@2.0.0 </tspan>
<tspan x="10" y="2090">  │ │ │   ├─┬ generate-object-property@1.2.0 </tspan>
<tspan x="10" y="2106">  │ │ │   │ └── is-property@1.0.2 </tspan>
<tspan x="10" y="2122">  │ │ │   ├── jsonpointer@4.0.1 </tspan>
<tspan x="10" y="2138">  │ │ │   └── xtend@4.0.1 </tspan>
<tspan x="10" y="2154">  │ │ ├─┬ http-signature@0.11.0 </tspan>
<tspan x="10" y="2170">  │ │ │ ├── asn1@0.1.11 </tspan>
<tspan x="10" y="2186">  │ │ │ ├── assert-plus@0.1.5 </tspan>
<tspan x="10" y="2202">  │ │ │ └── ctype@0.5.3 </tspan>
<tspan x="10" y="2218">  │ │ ├── node-uuid@1.4.8 </tspan>
<tspan x="10" y="2234">  │ │ ├── qs@4.0.0 </tspan>
<tspan x="10" y="2250">  │ │ └── tunnel-agent@0.4.3 </tspan>
<tspan x="10" y="2266">  │ └── underscore@1.8.3 </tspan>
<tspan x="10" y="2282">  ├── object-hash@1.1.8 </tspan>
<tspan x="10" y="2298">  ├── safetimeout@0.1.1 </tspan>
<tspan x="10" y="2314">  ├─┬ spdy@3.4.4 </tspan>
<tspan x="10" y="2330">  │ ├─┬ debug@2.6.3 </tspan>
<tspan x="10" y="2346">  │ │ └── ms@0.7.2 </tspan>
<tspan x="10" y="2362">  │ ├── handle-thing@1.2.5 </tspan>
<tspan x="10" y="2378">  │ ├── http-deceiver@1.2.7 </tspan>
<tspan x="10" y="2394">  │ ├── select-hose@2.0.0 </tspan>
<tspan x="10" y="2410">  │ └─┬ spdy-transport@2.0.18 </tspan>
<tspan x="10" y="2426">  │   ├─┬ hpack.js@2.1.6 </tspan>
<tspan x="10" y="2442">  │   │ └── inherits@2.0.3 </tspan>
<tspan x="10" y="2458">  │   ├── obuf@1.1.1 </tspan>
<tspan x="10" y="2474">  │   ├─┬ readable-stream@2.0.6 </tspan>
<tspan x="10" y="2490">  │   │ ├── core-util-is@1.0.2 </tspan>
<tspan x="10" y="2506">  │   │ ├── isarray@1.0.0 </tspan>
<tspan x="10" y="2522">  │   │ ├── process-nextick-args@1.0.7 </tspan>
<tspan x="10" y="2538">  │   │ ├── string_decoder@0.10.31 </tspan>
<tspan x="10" y="2554">  │   │ └── util-deprecate@1.0.2 </tspan>
<tspan x="10" y="2570">  │   └─┬ wbuf@1.7.2 </tspan>
<tspan x="10" y="2586">  │     └── minimalistic-assert@1.0.0 </tspan>
<tspan x="10" y="2602">  └── valid-url@1.0.9</tspan>
</text>
</svg>
